<svg xmlns="http://www.w3.org/2000/svg" width="26" height="26">
    <defs>
        <style>
            .cls-2{fill:#ffffff}
        </style>
    </defs>
    <g id="그룹_9579" data-name="그룹 9579" transform="translate(-1033 -1121)">
        <path id="사각형_3685" data-name="사각형 3685" transform="translate(1033 1121)" style="fill:none" d="M0 0h26v26H0z"/>
        <g id="그룹_7180" data-name="그룹 7180" transform="translate(1035.053 1123.053)">
            <path id="패스_550" data-name="패스 550" class="cls-2" d="M291.968 256.06v-.005c0-.042-.007-.084-.01-.126l-.011-.132v-.011q-.033-.357-.088-.707h-2.619a.677.677 0 0 0-.612.381l-.884 1.794-1.054-4.455a.682.682 0 0 0-1.336.043l-.8 4.734-.821-7.123a.674.674 0 0 0-.677-.6.674.674 0 0 0-.677.6l-1.495 12.775a.49.49 0 1 0 .974.114l1.2-10.221.766 6.65a.682.682 0 0 0 1.35.036l.91-5.349.906 3.832a.682.682 0 0 0 1.275.145l1.169-2.372h1.306c.019.248.03.5.03.751a9.714 9.714 0 0 1-19.085 2.555H270.4a10.948 10.948 0 0 0 21.594-2.555c0-.256-.009-.506-.026-.754z" transform="translate(-270.1 -245.863)"/>
            <path id="패스_551" data-name="패스 551" class="cls-2" d="M274.868 163.921a10.947 10.947 0 0 0-10.948 10.947c0 .253.01.5.027.751 0 .051.008.1.012.152 0 .029 0 .057.007.085q.013.145.03.289v.017c.017.147.037.293.06.438h2.619a.678.678 0 0 0 .612-.381l.884-1.794 1.054 4.455a.682.682 0 0 0 1.336-.043l.8-4.734.821 7.123a.674.674 0 0 0 .677.6.674.674 0 0 0 .677-.6l1.494-12.775a.49.49 0 1 0-.974-.114l-1.2 10.221-.766-6.65a.682.682 0 0 0-1.35-.036l-.91 5.349-.906-3.833a.682.682 0 0 0-1.275-.144l-1.169 2.372h-1.307q-.028-.372-.029-.751a9.714 9.714 0 0 1 19.085-2.555h1.275a10.951 10.951 0 0 0-10.636-8.389z" transform="translate(-263.921 -163.921)"/>
        </g>
    </g>
</svg>
